<?xml version="1.0" encoding="utf-8"?>
<!-- Generator: Adobe Illustrator 19.2.1, SVG Export Plug-In . SVG Version: 6.00 Build 0)  -->
<svg version="1.1" id="layer" xmlns="http://www.w3.org/2000/svg" xmlns:xlink="http://www.w3.org/1999/xlink" x="0px" y="0px"
	 viewBox="0 0 652 652" style="enable-background:new 0 0 652 652;" xml:space="preserve">
<style type="text/css">
	.st0{fill:#FFFFFF;}
	.st1{fill:none;stroke:#C60B40;stroke-width:5.1327;stroke-miterlimit:10;}
	.st2{clip-path:url(#SVGID_2_);fill:none;stroke:#C60B40;stroke-width:5.1327;stroke-miterlimit:10;}
	.st3{fill:#080303;}
	.st4{fill:#C60B40;}
	.st5{fill:#68B83A;}
	.st6{fill:#0E1720;}
</style>
<g>
	<path class="st0" d="M606.1,410.8H36.9c-8.5,0-15.4-6.9-15.4-15.4V246.5c0-8.5,6.9-15.4,15.4-15.4l569.2,0.1
		c8.5,0,15.4,6.9,15.4,15.4v148.8C621.5,403.9,614.6,410.8,606.1,410.8"/>
	<path class="st1" d="M606.1,410.8H36.9c-8.5,0-15.4-6.9-15.4-15.4V246.5c0-8.5,6.9-15.4,15.4-15.4l569.2,0.1
		c8.5,0,15.4,6.9,15.4,15.4v148.8C621.5,403.9,614.6,410.8,606.1,410.8z"/>
</g>
<g>
	<defs>
		<path id="SVGID_1_" d="M21.5,246.5v149c0,8.5,6.9,15.4,15.4,15.4h569.2c8.5,0,15.4-6.9,15.4-15.4V246.6c0-8.5-6.9-15.4-15.4-15.4
			l-569.2-0.1C28.4,231.1,21.5,238,21.5,246.5"/>
	</defs>
	<clipPath id="SVGID_2_">
		<use xlink:href="#SVGID_1_"  style="overflow:visible;"/>
	</clipPath>
	<line class="st2" x1="169.3" y1="419" x2="169.3" y2="221.4"/>
</g>
<g>
	<path class="st3" d="M140.7,314.9l-1-1.7c0-12.5-5.7-17.5-12.5-21.4c2-0.5,4.1-1,4.7-3.5c3.5-0.9,4.2-2.5,4.6-4.2
		c0.9-0.6,4-2.3,3.7-5.3c1.7-1.2,2.7-2.7,2.2-4.9c1.8-2,2.3-3.7,1.6-5.2c2.2-2.8,1.2-4.2,0.3-5.6c1.7-3,0.2-6.2-4.4-5.7
		c-1.8-2.7-5.9-2.1-6.5-2.1c-0.7-0.9-1.6-1.6-4.4-1.3c-1.8-1.6-3.9-1.4-6-0.6c-2.5-2-4.2-0.4-6.1,0.2c-3-1-3.7,0.4-5.2,0.9
		c-3.3-0.7-4.3,0.8-5.9,2.4l-1.8,0c-5,2.9-7.5,8.8-8.4,11.8c-0.9-3-3.4-8.9-8.4-11.8l-1.8,0c-1.6-1.6-2.6-3.1-5.9-2.4
		c-1.5-0.5-2.2-1.9-5.2-0.9c-1.2-0.4-2.4-1.2-3.7-1.2v0c-0.7,0-1.5,0.3-2.3,0.9c-2.1-0.8-4.2-1.1-6,0.6c-2.8-0.4-3.7,0.4-4.4,1.3
		c-0.6,0-4.6-0.6-6.5,2.1c-4.6-0.5-6.1,2.7-4.4,5.7c-0.9,1.4-1.9,2.9,0.3,5.6c-0.8,1.5-0.3,3.2,1.6,5.2c-0.5,2.2,0.5,3.7,2.2,4.9
		c-0.3,2.9,2.7,4.7,3.7,5.3c0.3,1.7,1.1,3.3,4.6,4.2c0.6,2.6,2.7,3,4.7,3.5c-6.7,3.9-12.5,8.9-12.5,21.4l-1,1.7
		c-7.7,4.6-14.7,19.5-3.8,31.6c0.7,3.8,1.9,6.5,3,9.5c1.6,12.1,11.9,17.8,14.7,18.5c4,3,8.3,5.9,14,7.9c5.4,5.5,11.3,7.6,17.3,7.6
		h0.3c5.9,0,11.8-2.1,17.3-7.6c5.8-2,10-4.8,14-7.9c2.7-0.7,13.1-6.3,14.7-18.5c1.1-3,2.2-5.7,3-9.5
		C155.3,334.4,148.4,319.5,140.7,314.9"/>
	<path class="st4" d="M134.7,312.8c-0.4,5-26.6-17.5-22-18.2C124.9,292.5,135.1,299.7,134.7,312.8"/>
	<path class="st4" d="M123.2,337.8c-6.6,4.2-16.1,1.5-21.2-6.1c-5.1-7.6-3.9-17.2,2.6-21.5c6.6-4.2,16.1-1.5,21.2,6.1
		C130.9,323.9,129.7,333.5,123.2,337.8"/>
	<path class="st5" d="M104.9,260.3c0.2,1.1,0.5,1.8,0.8,2.1c1.5-1.6,2.6-3.2,4.5-4.7c0,0.9-0.4,1.8,0.7,2.5c1-1.4,2.4-2.6,4.2-3.6
		c-0.9,1.5-0.2,2,0.3,2.6c1.4-1.2,2.7-2.4,5.2-3.3c-0.7,0.8-1.7,1.7-0.6,2.6c1.4-0.9,2.8-1.8,6.2-2.4c-0.8,0.8-2.3,1.7-1.4,2.5
		c1.8-0.7,3.7-1.2,5.9-1.5c-1,0.9-1.9,1.7-1.1,2.4c1.9-0.6,4.5-1.4,7.1-0.7l-1.6,1.6c-0.2,0.2,3.8,0.2,6.4,0.2
		c-1,1.3-1.9,2.6-2.5,4.9c0.3,0.3,1.6,0.1,2.8,0c-1.3,2.6-3.4,3.3-4,4.4c0.8,0.6,1.8,0.4,3,0c-0.9,1.9-2.8,3.1-4.3,4.7
		c0.4,0.3,1,0.4,2.6,0.2c-1.4,1.5-3.1,2.8-5,4c0.3,0.4,1.6,0.4,2.7,0.4c-1.8,1.8-4.1,2.7-6.3,3.8c1.1,0.7,1.9,0.6,2.7,0.6
		c-1.5,1.3-4.1,1.9-6.6,2.7c0.5,0.7,0.9,0.9,1.9,1.1c-2.6,1.4-6.2,0.8-7.3,1.5c0.3,0.7,1,1.2,1.8,1.6c-4.1,0.2-15.4-0.2-17.6-8.7
		c4.2-4.6,11.9-10.1,25.2-16.8c-10.3,3.4-19.6,8-27.4,14.4C94.2,275.4,100.5,264.6,104.9,260.3"/>
	<path class="st4" d="M95.7,291.1L95.7,291.1c6.5-0.1,14.5,4.8,14.5,9.3c0,4-5.6,7.3-14.4,7.2c-8.6-0.1-14.4-4.1-14.4-8
		C81.4,296.5,88.4,290.9,95.7,291.1"/>
	<path class="st5" d="M62.7,287.7c1-0.2,1.4-0.4,1.9-1.1c-2.4-0.8-5-1.4-6.6-2.7c0.8,0,1.6,0.2,2.7-0.6c-2.2-1.2-4.5-2.1-6.3-3.8
		c1.1,0,2.3,0,2.7-0.4c-2-1.2-3.7-2.6-5-4c1.6,0.2,2.2,0,2.6-0.2c-1.5-1.5-3.4-2.8-4.3-4.7c1.2,0.4,2.2,0.5,3,0
		c-0.5-1.1-2.7-1.8-4-4.4c1.2,0.1,2.5,0.3,2.8,0c-0.6-2.3-1.6-3.6-2.5-4.9c2.6,0,6.6,0,6.4-0.2l-1.6-1.6c2.6-0.7,5.2,0.1,7.1,0.7
		c0.9-0.7,0-1.5-1.1-2.4c2.2,0.3,4.1,0.8,5.9,1.5c0.9-0.8-0.6-1.7-1.4-2.5c3.4,0.6,4.8,1.5,6.2,2.4c1-1,0.1-1.8-0.6-2.6
		c2.5,0.9,3.8,2.1,5.2,3.3c0.5-0.6,1.2-1.1,0.3-2.6c1.8,1,3.2,2.2,4.2,3.6c1.1-0.7,0.7-1.7,0.7-2.5c1.9,1.5,3.1,3.1,4.5,4.7
		c0.3-0.2,0.5-0.9,0.8-2.1c4.5,4.3,10.8,15,1.6,19.3c-7.8-6.3-17.1-10.9-27.4-14.4c13.2,6.7,20.9,12.2,25.2,16.8
		c-2.2,8.5-13.4,8.9-17.6,8.7c0.8-0.4,1.5-0.9,1.8-1.6C68.9,288.4,65.2,289.1,62.7,287.7"/>
	<path class="st4" d="M78.8,294.2c4.5,0.7-21.6,23.2-22,18.2C56.3,299.3,66.5,292.1,78.8,294.2"/>
	<path class="st4" d="M51,344.3c-6.4-5-8.4-19.8,3.4-26.4C61.5,316.1,56.8,346.9,51,344.3"/>
	<path class="st4" d="M75.5,370.7c-3.6,2.1-12.3,1.3-18.5-7.5c-4.2-7.3-3.6-14.8-0.7-17c4.4-2.6,11.2,0.9,16.4,6.9
		C77.2,358.4,79.3,367.9,75.5,370.7"/>
	<path class="st4" d="M68.4,338.6c-6.6-4.2-7.8-13.9-2.6-21.5c5.1-7.6,14.6-10.4,21.2-6.1c6.6,4.2,7.8,13.9,2.6,21.5
		C84.4,340.1,74.9,342.8,68.4,338.6"/>
	<path class="st4" d="M95.8,385.7c-7.9,0.3-15.6-6.4-15.5-8.7c-0.1-3.4,9.6-6.1,15.9-5.9c6.4-0.3,14.9,2,15,5.1
		C111.3,379.1,103.4,385.8,95.8,385.7"/>
	<path class="st4" d="M111.6,352.1c0,8-7,14.5-15.8,14.5c-8.8,0-15.9-6.4-16-14.3v-0.2c0-8,7-14.5,15.8-14.5c8.8,0,15.9,6.4,16,14.3
		V352.1z"/>
	<path class="st4" d="M133.7,363.6c-6.8,9.3-16,9.7-19.4,7.1c-3.6-3.3-0.8-13.7,4.1-19.3c5.6-6.3,11.6-10.3,15.8-7.1
		C137,347,138.7,357.4,133.7,363.6"/>
	<path class="st4" d="M139.9,344c-5.8,2.5-10.5-28.3-3.4-26.4C148.3,324.2,146.2,338.9,139.9,344"/>
	<path class="st4" d="M206.8,325.7v19.6h-9.9v-49.2h18.5c5.6,0,10,1.3,13.1,3.8c3.2,2.6,4.7,6.1,4.7,10.7c0,2.5-0.7,4.7-2,6.5
		c-1.3,1.8-3.3,3.3-5.8,4.4c2.9,0.9,5,2.3,6.3,4.3c1.3,2,1.9,4.5,1.9,7.4v3.6c0,1.4,0.2,2.8,0.6,4.3c0.4,1.5,1,2.6,1.9,3.3v0.7H226
		c-0.9-0.7-1.5-1.9-1.8-3.6c-0.3-1.7-0.4-3.3-0.4-4.8v-3.5c0-2.5-0.7-4.4-2-5.7c-1.3-1.4-3.2-2-5.7-2H206.8z M206.8,318.1h8.5
		c2.8,0,4.8-0.6,6.2-1.8c1.4-1.2,2-2.9,2-5.2c0-2.2-0.7-4-2-5.4c-1.4-1.3-3.4-2-6-2h-8.7V318.1z"/>
	<path class="st4" d="M263.3,345.3c-0.4-0.8-0.7-1.7-0.9-2.6c-0.3-0.9-0.4-1.9-0.6-2.8c-1,1.8-2.3,3.3-4,4.4
		c-1.7,1.2-3.6,1.8-5.9,1.8c-3.8,0-6.8-1-8.8-3c-2.1-2-3.1-4.7-3.1-8.1c0-3.6,1.4-6.4,4.1-8.3c2.8-2,6.8-3,12.1-3h5.5v-2.9
		c0-1.8-0.5-3.1-1.4-4.1c-0.9-1-2.3-1.4-4.1-1.4c-1.6,0-2.8,0.4-3.7,1.2c-0.9,0.8-1.3,1.9-1.3,3.2l-9.5,0l0-0.2
		c-0.2-3.1,1.2-5.7,4-8c2.8-2.2,6.6-3.4,11.2-3.4c4.4,0,7.9,1.1,10.6,3.3c2.7,2.2,4.1,5.4,4.1,9.5V336c0,1.7,0.1,3.3,0.4,4.8
		c0.3,1.5,0.7,3,1.2,4.5H263.3z M254.2,338.8c1.7,0,3.3-0.4,4.6-1.3c1.4-0.9,2.3-1.8,2.7-3v-5.2h-5.5c-2.1,0-3.7,0.5-4.8,1.6
		c-1.1,1-1.6,2.3-1.6,3.8c0,1.2,0.4,2.2,1.2,2.9C251.7,338.4,252.8,338.8,254.2,338.8"/>
	<path class="st4" d="M298.7,335.3c0-1.1-0.5-2-1.6-2.8c-1-0.8-3-1.5-5.8-2.1c-4.3-0.9-7.6-2.2-9.8-3.9c-2.2-1.7-3.3-4.1-3.3-7
		c0-3.2,1.3-5.8,4-8c2.6-2.2,6.2-3.3,10.6-3.3c4.7,0,8.4,1.1,11.1,3.3c2.8,2.2,4.1,4.9,4,8.3l-0.1,0.2h-9.5c0-1.5-0.5-2.7-1.4-3.6
		c-0.9-0.9-2.3-1.4-4.1-1.4c-1.6,0-2.9,0.4-3.8,1.2c-0.9,0.8-1.4,1.7-1.4,2.9c0,1.1,0.5,2.1,1.4,2.8c1,0.7,2.9,1.4,5.8,1.9
		c4.5,0.9,7.8,2.2,10,4c2.2,1.7,3.3,4.1,3.3,7.2c0,3.3-1.4,6-4.2,8.1c-2.8,2.1-6.5,3.1-11.1,3.1c-4.9,0-8.7-1.2-11.5-3.7
		c-2.8-2.5-4.2-5.3-4-8.4l0.1-0.2h9c0.1,2,0.7,3.4,1.9,4.3c1.2,0.9,2.8,1.3,4.8,1.3c1.8,0,3.2-0.4,4.2-1.1
		C298.2,337.5,298.7,336.5,298.7,335.3"/>
	<path class="st4" d="M347.5,328.1c0,5.4-1.2,9.7-3.8,13c-2.5,3.3-6,4.9-10.5,4.9c-1.9,0-3.6-0.4-5.1-1.1c-1.5-0.7-2.8-1.8-3.8-3.1
		v17.5h-9.8v-50.6h8.9l0.6,4.3c1.1-1.6,2.4-2.8,3.9-3.7c1.5-0.9,3.3-1.3,5.3-1.3c4.5,0,8,1.8,10.5,5.3c2.5,3.5,3.8,8.2,3.8,13.9
		V328.1z M337.7,327.3c0-3.5-0.6-6.2-1.7-8.4c-1.1-2.1-2.9-3.2-5.3-3.2c-1.5,0-2.8,0.3-3.8,0.9c-1,0.6-1.9,1.5-2.5,2.6v16
		c0.6,1,1.4,1.8,2.5,2.4c1,0.5,2.3,0.8,3.9,0.8c2.4,0,4.1-0.9,5.3-2.8c1.1-1.9,1.7-4.4,1.7-7.6V327.3z"/>
	<path class="st4" d="M386.6,328.1c0,5.4-1.2,9.8-3.6,13.1c-2.4,3.3-5.9,4.9-10.5,4.9c-2.1,0-4-0.4-5.5-1.3c-1.6-0.9-2.9-2.2-4-3.9
		l-0.7,4.5h-8.4v-52.7h9.8v20c1.1-1.5,2.3-2.6,3.8-3.4c1.5-0.8,3.2-1.2,5.1-1.2c4.6,0,8.2,1.8,10.6,5.3c2.4,3.5,3.6,8.2,3.6,14
		V328.1z M376.8,327.4c0-3.6-0.5-6.4-1.6-8.5c-1-2.1-2.8-3.1-5.3-3.1c-1.5,0-2.8,0.3-3.9,1c-1.1,0.6-1.9,1.6-2.5,2.8V335
		c0.6,1.1,1.4,2,2.5,2.5c1.1,0.6,2.4,0.9,3.9,0.9c2.5,0,4.3-0.9,5.3-2.7c1-1.8,1.5-4.4,1.5-7.7V327.4z"/>
	<path class="st4" d="M408.8,346.1c-5.3,0-9.5-1.7-12.6-5.1c-3.2-3.4-4.7-7.7-4.7-12.9v-1.4c0-5.4,1.5-9.9,4.5-13.4
		c3-3.5,7-5.3,12-5.2c4.9,0,8.8,1.5,11.5,4.5c2.7,3,4.1,7,4.1,12.1v5.4h-21.8l-0.1,0.2c0.2,2.4,1,4.4,2.4,5.9
		c1.4,1.5,3.4,2.3,5.8,2.3c2.2,0,4-0.2,5.4-0.7c1.4-0.4,3-1.1,4.7-2.1l2.7,6.1c-1.5,1.2-3.4,2.2-5.8,3
		C414.5,345.7,411.8,346.1,408.8,346.1 M407.9,315.7c-1.8,0-3.3,0.7-4.3,2.1c-1.1,1.4-1.7,3.2-2,5.5l0.1,0.2h12.1v-0.9
		c0-2.1-0.5-3.8-1.5-5C411.4,316.4,409.9,315.7,407.9,315.7"/>
	<path class="st4" d="M448.5,317.3l-3.6-0.1c-1.5,0-2.7,0.3-3.6,0.9c-0.9,0.6-1.7,1.5-2.2,2.6v24.7h-9.8v-36.5h9.1l0.4,5.4
		c0.9-1.9,2-3.4,3.3-4.5c1.4-1.1,2.9-1.6,4.7-1.6c0.5,0,0.9,0,1.4,0.1c0.4,0.1,0.8,0.2,1.3,0.3L448.5,317.3z"/>
	<path class="st4" d="M472.7,317.3l-3.6-0.1c-1.5,0-2.7,0.3-3.6,0.9c-0.9,0.6-1.7,1.5-2.2,2.6v24.7h-9.8v-36.5h9.1l0.4,5.4
		c0.9-1.9,2-3.4,3.3-4.5c1.4-1.1,2.9-1.6,4.7-1.6c0.5,0,0.9,0,1.4,0.1c0.4,0.1,0.8,0.2,1.3,0.3L472.7,317.3z"/>
	<path class="st4" d="M491.8,330l0.4,2h0.2l7-23.2H510l-14.8,42c-1,2.6-2.4,4.8-4.2,6.6c-1.8,1.8-4.4,2.7-8,2.7
		c-0.8,0-1.6-0.1-2.3-0.2c-0.7-0.1-1.6-0.3-2.6-0.6l1.1-7.2c0.3,0,0.6,0.1,0.9,0.1c0.3,0,0.6,0.1,0.9,0.1c1.6,0,2.9-0.4,3.7-1.2
		c0.9-0.8,1.6-1.8,2-3l1.1-2.8l-13-36.5h10.6L491.8,330z"/>
	<path class="st4" d="M541.8,327.5v17.8h-9.9v-49.2h19.6c5.6,0,10.1,1.4,13.3,4.3c3.2,2.9,4.9,6.7,4.9,11.4c0,4.7-1.6,8.5-4.9,11.3
		c-3.2,2.9-7.7,4.3-13.3,4.3H541.8z M541.8,319.9h9.7c2.7,0,4.8-0.8,6.2-2.2c1.4-1.5,2.1-3.4,2.1-5.7c0-2.4-0.7-4.3-2.1-5.9
		c-1.4-1.5-3.5-2.3-6.3-2.3h-9.7V319.9z"/>
	<path class="st4" d="M586.5,300.1h-9.8v-7.4h9.8V300.1z M586.5,345.3h-9.8v-36.5h9.8V345.3z"/>
	<path class="st4" d="M525.1,393.8c-8.6,0-13.1-3.4-17-6.3c-3.6-2.7-6.4-4.8-12.6-4.8c-6.2,0-9,2.1-12.6,4.8c-3.9,3-8.4,6.3-17,6.3
		c-8.6,0-13.1-3.4-17-6.3c-3.6-2.7-6.4-4.8-12.6-4.8c-6.2,0-9,2.1-12.6,4.8c-3.9,3-8.4,6.3-17,6.3c-8.6,0-13.1-3.4-17-6.3
		c-3.6-2.7-6.4-4.8-12.6-4.8s-9,2.1-12.6,4.8c-3.9,3-8.4,6.3-17,6.3c-8.6,0-13.1-3.4-17-6.3c-3.6-2.7-6.4-4.8-12.6-4.8
		c-6.2,0-9,2.1-12.6,4.8c-3.9,3-8.4,6.3-17,6.3s-13.1-3.4-17-6.3c-3.6-2.7-6.4-4.8-12.6-4.8c-6.2,0-9,2.1-12.6,4.8
		c-3.9,3-8.4,6.3-17,6.3s-13.1-3.4-17-6.3c-3.6-2.7-6.4-4.8-12.6-4.8c-2,0-3.7-1.7-3.7-3.7c0-2,1.7-3.7,3.7-3.7
		c8.6,0,13.1,3.4,17,6.3c3.6,2.7,6.4,4.8,12.6,4.8c6.2,0,9-2.1,12.6-4.8c3.9-3,8.4-6.3,17-6.3c8.6,0,13.1,3.4,17,6.3
		c3.6,2.7,6.4,4.8,12.6,4.8c6.2,0,9-2.1,12.6-4.8c3.9-3,8.4-6.3,17-6.3s13.1,3.4,17,6.3c3.6,2.7,6.4,4.8,12.6,4.8
		c6.2,0,9-2.1,12.6-4.8c3.9-3,8.4-6.3,17-6.3c8.6,0,13.1,3.4,17,6.3c3.6,2.7,6.4,4.8,12.6,4.8c6.2,0,9-2.1,12.6-4.8
		c3.9-3,8.4-6.3,17-6.3c8.6,0,13.1,3.4,17,6.3c3.6,2.7,6.4,4.8,12.6,4.8c6.2,0,9-2.1,12.6-4.8c3.9-3,8.4-6.3,17-6.3
		c8.6,0,13.1,3.4,17,6.3c3.6,2.7,6.4,4.8,12.6,4.8c6.2,0,9-2.1,12.6-4.8c3.9-3,8.4-6.3,17-6.3c2,0,3.7,1.6,3.7,3.7
		c0,2-1.7,3.7-3.7,3.7c-6.2,0-9,2.1-12.6,4.8C538.2,390.5,533.8,393.8,525.1,393.8"/>
	<path class="st4" d="M572.3,395.7h-12.5c-2.1,0-3.9-1.7-3.9-3.9v-25.2c0-2.1,1.7-3.9,3.9-3.9h12.5c2.1,0,3.9,1.7,3.9,3.9v25.2
		C576.2,394,574.5,395.7,572.3,395.7"/>
	<path class="st4" d="M584.8,373.7h-17.1c-1.5,0-2.6-1.2-2.6-2.6c0-1.5,1.2-2.6,2.6-2.6h17.1c1.5,0,2.7,1.2,2.7,2.6
		C587.4,372.5,586.2,373.7,584.8,373.7"/>
	<path class="st4" d="M584.8,390.1h-17.1c-1.5,0-2.6-1.2-2.6-2.6c0-1.5,1.2-2.6,2.6-2.6h17.1c1.5,0,2.7,1.2,2.7,2.6
		C587.4,388.9,586.2,390.1,584.8,390.1"/>
	<path class="st6" d="M202.4,269.1v9.9h-5.5v-27.4h10.9c3.1,0,5.6,0.8,7.4,2.4c1.8,1.6,2.7,3.7,2.7,6.3c0,2.6-0.9,4.7-2.7,6.3
		c-1.8,1.6-4.3,2.4-7.4,2.4H202.4z M202.4,264.9h5.4c1.5,0,2.7-0.4,3.5-1.3c0.8-0.8,1.2-1.9,1.2-3.2c0-1.3-0.4-2.4-1.2-3.3
		c-0.8-0.9-1.9-1.3-3.5-1.3h-5.4V264.9z"/>
	<path class="st6" d="M244,267.8c0,3.4-1.1,6.1-3.2,8.3c-2.1,2.2-4.9,3.3-8.3,3.3c-3.4,0-6.1-1.1-8.2-3.3c-2.1-2.2-3.2-5-3.2-8.3
		v-4.9c0-3.3,1.1-6.1,3.1-8.3c2.1-2.2,4.8-3.3,8.2-3.3c3.4,0,6.2,1.1,8.3,3.3c2.1,2.2,3.2,5,3.2,8.3V267.8z M238.5,262.9
		c0-2.1-0.5-3.9-1.6-5.3c-1.1-1.4-2.5-2.1-4.4-2.1c-1.9,0-3.3,0.7-4.3,2c-1,1.4-1.5,3.1-1.5,5.3v5c0,2.2,0.5,3.9,1.6,5.3
		c1,1.4,2.5,2.1,4.3,2.1c1.9,0,3.3-0.7,4.4-2.1c1.1-1.4,1.6-3.1,1.6-5.3V262.9z"/>
	<polygon class="st6" points="269.9,270.5 270.1,270.5 274,251.7 279.3,251.7 272.9,279.1 267.8,279.1 262.8,261 262.7,261 
		257.7,279.1 252.6,279.1 246.2,251.7 251.6,251.7 255.5,270.4 255.6,270.5 260.7,251.7 264.8,251.7 	"/>
	<polygon class="st6" points="299.2,267 287.9,267 287.9,274.8 301.1,274.8 301.1,279.1 282.4,279.1 282.4,251.7 301.1,251.7 
		301.1,255.9 287.9,255.9 287.9,262.8 299.2,262.8 	"/>
	<path class="st6" d="M310,268.1v10.9h-5.5v-27.4h10.3c3.1,0,5.6,0.7,7.3,2.1c1.8,1.4,2.6,3.4,2.6,5.9c0,1.4-0.4,2.6-1.1,3.6
		c-0.7,1-1.8,1.8-3.3,2.5c1.6,0.5,2.8,1.3,3.5,2.4c0.7,1.1,1.1,2.5,1.1,4.1v2c0,0.8,0.1,1.6,0.3,2.4c0.2,0.8,0.6,1.5,1.1,1.9v0.4
		h-5.7c-0.5-0.4-0.8-1.1-1-2c-0.1-0.9-0.2-1.8-0.2-2.7v-1.9c0-1.4-0.4-2.4-1.1-3.2c-0.7-0.8-1.8-1.1-3.1-1.1H310z M310,263.9h4.7
		c1.5,0,2.7-0.3,3.4-1c0.8-0.7,1.1-1.6,1.1-2.9c0-1.3-0.4-2.2-1.1-3c-0.8-0.7-1.9-1.1-3.4-1.1H310V263.9z"/>
	<polygon class="st6" points="346.8,267 335.4,267 335.4,274.8 348.7,274.8 348.7,279.1 330,279.1 330,251.7 348.7,251.7 
		348.7,255.9 335.4,255.9 335.4,262.8 346.8,262.8 	"/>
	<path class="st6" d="M352.1,279.1v-27.4h9.4c3.3,0,6.1,1.1,8.3,3.2c2.2,2.1,3.2,4.9,3.2,8.2v4.5c0,3.4-1.1,6.1-3.2,8.2
		c-2.2,2.1-4.9,3.2-8.3,3.2H352.1z M357.5,255.9v18.9h3.6c2,0,3.5-0.7,4.6-2c1.1-1.3,1.7-3.1,1.7-5.2v-4.6c0-2.1-0.6-3.8-1.7-5.2
		c-1.1-1.3-2.7-2-4.6-2H357.5z"/>
	<path class="st6" d="M386.9,279.1v-27.4h9.2c3.2,0,5.7,0.6,7.5,1.9c1.8,1.3,2.7,3.1,2.7,5.6c0,1.3-0.3,2.4-1,3.4
		c-0.7,1-1.6,1.7-2.9,2.2c1.6,0.3,2.9,1.1,3.7,2.3c0.8,1.2,1.2,2.5,1.2,4c0,2.6-0.9,4.6-2.6,6c-1.7,1.3-4.2,2-7.3,2H386.9z
		 M392.4,263.2h3.9c1.5,0,2.6-0.3,3.4-0.9c0.8-0.6,1.2-1.5,1.2-2.6c0-1.3-0.4-2.2-1.2-2.8c-0.8-0.6-2-0.9-3.6-0.9h-3.8V263.2z
		 M392.4,267v7.9h5.1c1.5,0,2.6-0.3,3.3-0.9c0.8-0.6,1.1-1.6,1.1-2.8c0-1.3-0.3-2.4-1-3.1c-0.6-0.7-1.7-1.1-3.1-1.1H392.4z"/>
	<polygon class="st6" points="418.7,264.3 418.8,264.3 424.7,251.7 430.8,251.7 421.4,269.4 421.4,279.1 415.9,279.1 415.9,269.2 
		406.7,251.7 412.7,251.7 	"/>
</g>
</svg>
